# xmcd
#
# Track frame offsets: 
#        180
#        24622
#        43119
#        66608
#        90099
#        115527
#        139355
#
# Disc length: 2091 seconds
#
# Revision: 0
# Processed by: cddbd v1.5.2PL0 Copyright (c) Steve Scherf et al.
# Submitted via: ExactAudioCopy v0.99pb5
#
DISCID=5b082907
DTITLE=C-Ya - Believe
DYEAR=1996
DGENRE=Salsa
TTITLE0=Believe (Original Mix)
TTITLE1=Believe (Original Radio Edit)
TTITLE2=Believe (Car/J Rmx)
TTITLE3=Believe (Main Room Mix)
TTITLE4=Believe (Boom Boom Mix)
TTITLE5=Believe (Funky Mix)
TTITLE6=Believe (Funky Mix)
EXTD=
EXTT0=
EXTT1=
EXTT2=
EXTT3=
EXTT4=
EXTT5=
EXTT6=
PLAYORDER=
